<?xml version="1.0" encoding="UTF-8" standalone="no"?>
<!DOCTYPE svg PUBLIC "-//W3C//DTD SVG 1.1//EN"
 "http://www.w3.org/Graphics/SVG/1.1/DTD/svg11.dtd">
<!-- Generated by graphviz version 2.40.1 (20161225.0304)
 -->
<!-- Title: dependencies Pages: 1 -->
<svg width="673pt" height="284pt"
 viewBox="0.00 0.00 673.00 284.00" xmlns="http://www.w3.org/2000/svg" xmlns:xlink="http://www.w3.org/1999/xlink">
<g id="graph0" class="graph" transform="scale(1 1) rotate(0) translate(4 280)">
<title>dependencies</title>
<polygon fill="#ffffff" stroke="transparent" points="-4,4 -4,-280 669,-280 669,4 -4,4"/>
<text text-anchor="start" x="311.5091" y="-42.4" font-family="sans-serif" font-weight="bold" font-size="14.00" fill="#000000">Legend</text>
<polygon fill="#ffffb3" stroke="transparent" points="98.5,-10 98.5,-30 118.5,-30 118.5,-10 98.5,-10"/>
<text text-anchor="start" x="122.129" y="-15.4" font-family="sans-serif" font-size="14.00" fill="#000000"> &#160;Declarations</text>
<polygon fill="#8dd3c7" stroke="transparent" points="211.5,-10 211.5,-30 231.5,-30 231.5,-10 211.5,-10"/>
<text text-anchor="start" x="235.2251" y="-15.4" font-family="sans-serif" font-size="14.00" fill="#000000"> &#160;Module</text>
<polygon fill="#80b1d3" stroke="transparent" points="297.5,-10 297.5,-30 317.5,-30 317.5,-10 297.5,-10"/>
<text text-anchor="start" x="321.2812" y="-15.4" font-family="sans-serif" font-size="14.00" fill="#000000"> &#160;Bootstrap</text>
<polygon fill="#fdb462" stroke="transparent" points="394.5,-10 394.5,-30 414.5,-30 414.5,-10 394.5,-10"/>
<text text-anchor="start" x="418.1732" y="-15.4" font-family="sans-serif" font-size="14.00" fill="#000000"> &#160;Providers</text>
<polygon fill="#fb8072" stroke="transparent" points="490.5,-10 490.5,-30 510.5,-30 510.5,-10 490.5,-10"/>
<text text-anchor="start" x="514.2258" y="-15.4" font-family="sans-serif" font-size="14.00" fill="#000000"> &#160;Exports</text>
<g id="clust1" class="cluster">
<title>cluster_MatLinkPreviewModule</title>
<polygon fill="none" stroke="#000000" stroke-dasharray="1,5" points="8,-70 8,-268 657,-268 657,-70 8,-70"/>
</g>
<g id="clust2" class="cluster">
<title>cluster_MatLinkPreviewModule_declarations</title>
<polygon fill="none" stroke="#000000" points="22,-78 22,-130 644,-130 644,-78 22,-78"/>
</g>
<g id="clust7" class="cluster">
<title>cluster_MatLinkPreviewModule_exports</title>
<polygon fill="none" stroke="#000000" points="16,-208 16,-260 649,-260 649,-208 16,-208"/>
</g>
<!-- MatLinkPreviewComponent -->
<g id="node1" class="node">
<title>MatLinkPreviewComponent</title>
<polygon fill="#ffffb3" stroke="#000000" points="636.1951,-122 459.8049,-122 459.8049,-86 636.1951,-86 636.1951,-122"/>
<text text-anchor="middle" x="548" y="-99.8" font-family="Times,serif" font-size="14.00" fill="#000000">MatLinkPreviewComponent</text>
</g>
<!-- MatLinkPreviewModule -->
<g id="node4" class="node">
<title>MatLinkPreviewModule</title>
<polygon fill="#8dd3c7" stroke="#000000" points="403.413,-187 400.413,-191 379.413,-191 376.413,-187 248.587,-187 248.587,-151 403.413,-151 403.413,-187"/>
<text text-anchor="middle" x="326" y="-164.8" font-family="Times,serif" font-size="14.00" fill="#000000">MatLinkPreviewModule</text>
</g>
<!-- MatLinkPreviewComponent&#45;&gt;MatLinkPreviewModule -->
<g id="edge1" class="edge">
<title>MatLinkPreviewComponent&#45;&gt;MatLinkPreviewModule</title>
<path fill="none" stroke="#000000" d="M577.7825,-122.0225C577.7825,-139.3734 577.7825,-163 577.7825,-163 577.7825,-163 413.2541,-163 413.2541,-163"/>
<polygon fill="#000000" stroke="#000000" points="413.2542,-159.5001 403.2541,-163 413.2541,-166.5001 413.2542,-159.5001"/>
</g>
<!-- MatLinkPreviewContainerComponent -->
<g id="node2" class="node">
<title>MatLinkPreviewContainerComponent</title>
<polygon fill="#ffffb3" stroke="#000000" points="441.903,-122 210.097,-122 210.097,-86 441.903,-86 441.903,-122"/>
<text text-anchor="middle" x="326" y="-99.8" font-family="Times,serif" font-size="14.00" fill="#000000">MatLinkPreviewContainerComponent</text>
</g>
<!-- MatLinkPreviewContainerComponent&#45;&gt;MatLinkPreviewModule -->
<g id="edge2" class="edge">
<title>MatLinkPreviewContainerComponent&#45;&gt;MatLinkPreviewModule</title>
<path fill="none" stroke="#000000" d="M326,-122.1061C326,-122.1061 326,-140.991 326,-140.991"/>
<polygon fill="#000000" stroke="#000000" points="322.5001,-140.9909 326,-150.991 329.5001,-140.991 322.5001,-140.9909"/>
</g>
<!-- MatLinkPreviewDirective -->
<g id="node3" class="node">
<title>MatLinkPreviewDirective</title>
<polygon fill="#ffffb3" stroke="#000000" points="192.4454,-122 29.5546,-122 29.5546,-86 192.4454,-86 192.4454,-122"/>
<text text-anchor="middle" x="111" y="-99.8" font-family="Times,serif" font-size="14.00" fill="#000000">MatLinkPreviewDirective</text>
</g>
<!-- MatLinkPreviewDirective&#45;&gt;MatLinkPreviewModule -->
<g id="edge3" class="edge">
<title>MatLinkPreviewDirective&#45;&gt;MatLinkPreviewModule</title>
<path fill="none" stroke="#000000" d="M136.6576,-122.0225C136.6576,-139.3734 136.6576,-163 136.6576,-163 136.6576,-163 238.7141,-163 238.7141,-163"/>
<polygon fill="#000000" stroke="#000000" points="238.7141,-166.5001 248.7141,-163 238.7141,-159.5001 238.7141,-166.5001"/>
</g>
<!-- MatLinkPreviewComponent  -->
<g id="node5" class="node">
<title>MatLinkPreviewComponent </title>
<polygon fill="#fb8072" stroke="#000000" points="640.6953,-252 461.3047,-252 461.3047,-216 640.6953,-216 640.6953,-252"/>
<text text-anchor="middle" x="551" y="-229.8" font-family="Times,serif" font-size="14.00" fill="#000000">MatLinkPreviewComponent </text>
</g>
<!-- MatLinkPreviewModule&#45;&gt;MatLinkPreviewComponent  -->
<g id="edge4" class="edge">
<title>MatLinkPreviewModule&#45;&gt;MatLinkPreviewComponent </title>
<path fill="none" stroke="#000000" stroke-dasharray="5,2" d="M403.2976,-175C457.1858,-175 519.4675,-175 519.4675,-175 519.4675,-175 519.4675,-205.9775 519.4675,-205.9775"/>
<polygon fill="#000000" stroke="#000000" points="515.9676,-205.9774 519.4675,-215.9775 522.9676,-205.9775 515.9676,-205.9774"/>
</g>
<!-- MatLinkPreviewContainerComponent  -->
<g id="node6" class="node">
<title>MatLinkPreviewContainerComponent </title>
<polygon fill="#fb8072" stroke="#000000" points="443.4026,-252 208.5974,-252 208.5974,-216 443.4026,-216 443.4026,-252"/>
<text text-anchor="middle" x="326" y="-229.8" font-family="Times,serif" font-size="14.00" fill="#000000">MatLinkPreviewContainerComponent </text>
</g>
<!-- MatLinkPreviewModule&#45;&gt;MatLinkPreviewContainerComponent  -->
<g id="edge5" class="edge">
<title>MatLinkPreviewModule&#45;&gt;MatLinkPreviewContainerComponent </title>
<path fill="none" stroke="#000000" stroke-dasharray="5,2" d="M326,-187.1061C326,-187.1061 326,-205.991 326,-205.991"/>
<polygon fill="#000000" stroke="#000000" points="322.5001,-205.9909 326,-215.991 329.5001,-205.991 322.5001,-205.9909"/>
</g>
<!-- MatLinkPreviewDirective  -->
<g id="node7" class="node">
<title>MatLinkPreviewDirective </title>
<polygon fill="#fb8072" stroke="#000000" points="190.446,-252 23.554,-252 23.554,-216 190.446,-216 190.446,-252"/>
<text text-anchor="middle" x="107" y="-229.8" font-family="Times,serif" font-size="14.00" fill="#000000">MatLinkPreviewDirective </text>
</g>
<!-- MatLinkPreviewModule&#45;&gt;MatLinkPreviewDirective  -->
<g id="edge6" class="edge">
<title>MatLinkPreviewModule&#45;&gt;MatLinkPreviewDirective </title>
<path fill="none" stroke="#000000" stroke-dasharray="5,2" d="M248.4747,-175C177.3861,-175 83.0924,-175 83.0924,-175 83.0924,-175 83.0924,-205.9775 83.0924,-205.9775"/>
<polygon fill="#000000" stroke="#000000" points="79.5925,-205.9774 83.0924,-215.9775 86.5925,-205.9775 79.5925,-205.9774"/>
</g>
</g>
</svg>
